<svg xmlns="http://www.w3.org/2000/svg" xmlns:xlink="http://www.w3.org/1999/xlink" width="100" zoomAndPan="magnify" viewBox="0 0 75 74.999997" height="100" preserveAspectRatio="xMidYMid meet" version="1.2"><defs><clipPath id="839e5b08b6"><path d="M 8 17 L 67.5 17 L 67.5 58.085938 L 8 58.085938 Z M 8 17 "/></clipPath></defs><g id="67b3beee62"><rect x="0" width="75" y="0" height="74.999997" style="fill:#000d20;fill-opacity:1;stroke:none;"/><path style=" stroke:none;fill-rule:nonzero;fill:#f3e2b8;fill-opacity:1;" d="M 9.5625 30.65625 C 8.414062 29.941406 8.828125 26.703125 10.515625 23.3125 C 12.203125 19.925781 14.539062 17.640625 15.804688 18.117188 C 15.832031 18.128906 15.859375 18.140625 15.886719 18.152344 C 16.519531 18.464844 16.726562 19.472656 16.554688 20.839844 C 16.449219 21.609375 16.269531 22.359375 16.019531 23.09375 C 15.742188 23.933594 15.40625 24.75 15.007812 25.542969 C 14.617188 26.335938 14.167969 27.097656 13.664062 27.824219 C 13.226562 28.464844 12.734375 29.0625 12.183594 29.609375 C 11.195312 30.570312 10.265625 31.011719 9.636719 30.699219 C 9.609375 30.6875 9.585938 30.671875 9.5625 30.65625 Z M 9.5625 30.65625 "/><path style=" stroke:none;fill-rule:nonzero;fill:#ddc694;fill-opacity:1;" d="M 12.867188 23.3125 C 13.921875 21.199219 15.226562 19.515625 16.367188 18.664062 C 16.265625 18.4375 16.105469 18.269531 15.886719 18.152344 C 15.859375 18.140625 15.832031 18.128906 15.804688 18.117188 C 14.539062 17.640625 12.203125 19.925781 10.515625 23.3125 C 8.828125 26.703125 8.414062 29.941406 9.5625 30.65625 C 9.585938 30.671875 9.609375 30.6875 9.636719 30.699219 C 10.121094 30.941406 10.78125 30.734375 11.511719 30.191406 C 10.914062 28.992188 11.425781 26.207031 12.867188 23.3125 Z M 12.867188 23.3125 "/><path style=" stroke:none;fill-rule:nonzero;fill:#ef9538;fill-opacity:1;" d="M 41.496094 55.476562 L 41.503906 55.503906 C 39.984375 56.019531 38.421875 56.277344 36.816406 56.277344 C 34.050781 55.152344 31.375 53.070312 29.566406 51.054688 L 9.5625 30.65625 C 9.585938 30.671875 9.609375 30.6875 9.636719 30.699219 C 10.265625 31.011719 11.195312 30.570312 12.183594 29.609375 L 12.199219 29.625 Z M 41.496094 55.476562 "/><path style=" stroke:none;fill-rule:nonzero;fill:#ffc466;fill-opacity:1;" d="M 41.496094 55.476562 L 41.351562 55.347656 C 40.511719 55.5 39.667969 55.574219 38.816406 55.574219 C 36.050781 54.449219 33.375 52.367188 31.5625 50.351562 L 11.671875 30.066406 C 10.878906 30.703125 10.15625 30.957031 9.636719 30.699219 C 9.609375 30.6875 9.585938 30.671875 9.5625 30.65625 L 29.566406 51.054688 C 31.375 53.070312 34.050781 55.152344 36.816406 56.277344 C 38.421875 56.277344 39.984375 56.019531 41.503906 55.503906 Z M 41.496094 55.476562 "/><path style=" stroke:none;fill-rule:nonzero;fill:#b16c39;fill-opacity:1;" d="M 66.523438 40.730469 C 66.523438 40.730469 66.617188 41.976562 66.183594 44.03125 L 55.683594 30.503906 C 55.546875 29.859375 55.367188 29.226562 55.148438 28.605469 C 54.617188 27.089844 53.847656 25.703125 52.84375 24.445312 C 53.777344 25.007812 54.609375 25.695312 55.332031 26.511719 C 58.945312 30.691406 66.523438 40.730469 66.523438 40.730469 Z M 66.523438 40.730469 "/><path style=" stroke:none;fill-rule:nonzero;fill:#ef9538;fill-opacity:1;" d="M 55.683594 30.503906 L 66.183594 44.03125 C 65.957031 45.101562 65.652344 46.144531 65.265625 47.164062 L 55.785156 37.457031 C 55.867188 36.957031 55.929688 36.460938 55.976562 35.960938 C 56.160156 34.128906 56.0625 32.308594 55.683594 30.503906 Z M 55.683594 30.503906 "/><path style=" stroke:none;fill-rule:nonzero;fill:#b16c39;fill-opacity:1;" d="M 55.785156 37.457031 L 65.265625 47.164062 C 64.914062 48.089844 64.511719 48.992188 64.050781 49.867188 L 54.46875 42.183594 C 55.074219 40.65625 55.511719 39.078125 55.785156 37.457031 Z M 55.785156 37.457031 "/><path style=" stroke:none;fill-rule:nonzero;fill:#ef9538;fill-opacity:1;" d="M 64.050781 49.867188 C 64.050781 49.875 64.046875 49.878906 64.042969 49.886719 C 64.042969 49.890625 64.039062 49.894531 64.039062 49.894531 L 52.042969 46.882812 C 52.527344 46.140625 52.972656 45.378906 53.378906 44.59375 C 53.785156 43.808594 54.148438 43.007812 54.46875 42.183594 Z M 64.050781 49.867188 "/><path style=" stroke:none;fill-rule:nonzero;fill:#b16c39;fill-opacity:1;" d="M 52.042969 46.882812 L 64.039062 49.894531 C 63.523438 50.882812 63.027344 51.746094 62.558594 52.496094 L 48.882812 50.78125 C 50.070312 49.589844 51.121094 48.289062 52.042969 46.882812 Z M 52.042969 46.882812 "/><path style=" stroke:none;fill-rule:nonzero;fill:#ef9538;fill-opacity:1;" d="M 48.882812 50.78125 L 62.558594 52.496094 C 61.988281 53.421875 61.355469 54.308594 60.667969 55.148438 L 43.53125 54.667969 C 45.117188 53.882812 46.566406 52.898438 47.886719 51.71875 C 48.226562 51.417969 48.558594 51.105469 48.882812 50.78125 Z M 48.882812 50.78125 "/><path style=" stroke:none;fill-rule:nonzero;fill:#b16c39;fill-opacity:1;" d="M 43.53125 54.667969 L 60.667969 55.148438 C 59.171875 56.957031 58.226562 57.386719 58.226562 57.386719 C 58.226562 57.386719 45.816406 57.410156 40.277344 57.113281 C 39.078125 57.027344 37.921875 56.75 36.816406 56.277344 C 38.421875 56.277344 39.984375 56.019531 41.503906 55.503906 C 42.199219 55.269531 42.871094 54.992188 43.527344 54.667969 Z M 43.53125 54.667969 "/><path style=" stroke:none;fill-rule:nonzero;fill:#ef9538;fill-opacity:1;" d="M 55.683594 30.503906 C 56.0625 32.308594 56.160156 34.128906 55.976562 35.960938 L 16.042969 23.101562 L 16.019531 23.09375 C 16.269531 22.359375 16.449219 21.609375 16.554688 20.839844 L 16.574219 20.839844 L 55.128906 28.613281 L 55.148438 28.605469 C 55.367188 29.226562 55.546875 29.859375 55.683594 30.503906 Z M 55.683594 30.503906 "/><path style=" stroke:none;fill-rule:nonzero;fill:#b16c39;fill-opacity:1;" d="M 55.785156 37.457031 C 55.511719 39.078125 55.074219 40.65625 54.46875 42.183594 C 54.148438 43.007812 53.785156 43.808594 53.378906 44.59375 L 53.351562 44.578125 L 15.007812 25.542969 C 15.40625 24.75 15.742188 23.933594 16.019531 23.09375 L 16.042969 23.101562 L 55.976562 35.960938 C 55.933594 36.460938 55.867188 36.957031 55.785156 37.457031 Z M 55.785156 37.457031 "/><path style=" stroke:none;fill-rule:nonzero;fill:#b16c39;fill-opacity:1;" d="M 55.148438 28.605469 L 55.128906 28.613281 L 16.574219 20.839844 L 16.554688 20.839844 C 16.726562 19.472656 16.519531 18.464844 15.886719 18.152344 C 15.859375 18.140625 15.832031 18.128906 15.804688 18.117188 L 44.347656 21.667969 C 47.042969 21.941406 50.316406 22.875 52.84375 24.445312 C 53.847656 25.703125 54.617188 27.089844 55.148438 28.605469 Z M 55.148438 28.605469 "/><path style=" stroke:none;fill-rule:nonzero;fill:#ef9538;fill-opacity:1;" d="M 53.351562 44.578125 L 53.378906 44.59375 C 52.972656 45.378906 52.527344 46.140625 52.042969 46.882812 C 51.121094 48.289062 50.070312 49.589844 48.882812 50.78125 C 48.558594 51.105469 48.226562 51.417969 47.886719 51.71875 L 13.683594 27.835938 L 13.664062 27.824219 C 14.167969 27.097656 14.617188 26.335938 15.007812 25.542969 Z M 53.351562 44.578125 "/><path style=" stroke:none;fill-rule:nonzero;fill:#b16c39;fill-opacity:1;" d="M 13.683594 27.835938 L 47.886719 51.71875 C 46.566406 52.898438 45.117188 53.882812 43.53125 54.667969 L 43.527344 54.667969 C 42.871094 54.992188 42.199219 55.269531 41.503906 55.503906 L 41.496094 55.476562 L 12.199219 29.625 L 12.183594 29.609375 C 12.734375 29.0625 13.226562 28.464844 13.664062 27.824219 Z M 13.683594 27.835938 "/><g clip-rule="nonzero" clip-path="url(#839e5b08b6)"><path style=" stroke:none;fill-rule:nonzero;fill:#284268;fill-opacity:1;" d="M 67.085938 40.308594 C 67.011719 40.207031 59.453125 30.199219 55.867188 26.050781 C 55.125 25.214844 54.277344 24.503906 53.324219 23.917969 C 53.3125 23.902344 53.300781 23.886719 53.289062 23.875 L 53.277344 23.886719 C 52.417969 23.355469 51.523438 22.898438 50.585938 22.519531 C 48.605469 21.710938 46.554688 21.195312 44.425781 20.96875 L 15.957031 17.425781 C 14.082031 16.84375 11.523438 19.714844 9.886719 22.996094 C 8.25 26.28125 7.5 30.054688 9.101562 31.191406 L 29.050781 51.535156 C 31.722656 54.507812 36.21875 57.601562 40.238281 57.816406 C 45.050781 58.074219 55.136719 58.09375 57.652344 58.09375 C 58.007812 58.09375 58.210938 58.09375 58.226562 58.09375 C 58.328125 58.09375 58.425781 58.070312 58.519531 58.027344 C 58.628906 57.980469 61.277344 56.71875 64.667969 50.214844 C 67.492188 44.792969 67.238281 40.847656 67.226562 40.679688 C 67.21875 40.542969 67.171875 40.417969 67.085938 40.308594 Z M 65.828125 40.980469 C 65.835938 41.433594 65.808594 41.882812 65.753906 42.328125 L 56.332031 30.1875 C 56.164062 29.441406 55.941406 28.710938 55.667969 27.996094 C 59.152344 32.175781 64.890625 39.742188 65.828125 40.980469 Z M 64.96875 45.851562 L 56.535156 37.214844 C 56.710938 36.039062 56.789062 34.855469 56.761719 33.664062 C 56.753906 33.441406 56.746094 33.222656 56.730469 33.003906 L 65.425781 44.203125 C 65.304688 44.71875 65.15625 45.269531 64.96875 45.851562 Z M 46.035156 54.035156 C 46.421875 53.777344 46.804688 53.503906 47.179688 53.21875 C 47.863281 52.691406 48.515625 52.125 49.132812 51.523438 L 61.347656 53.054688 C 60.996094 53.574219 60.65625 54.035156 60.339844 54.433594 Z M 41.675781 54.695312 L 13.195312 29.5625 C 13.410156 29.324219 13.621094 29.066406 13.828125 28.796875 L 46.730469 51.773438 C 46.59375 51.882812 46.457031 51.992188 46.316406 52.101562 C 44.902344 53.203125 43.355469 54.066406 41.675781 54.695312 Z M 54.382812 44.15625 C 54.515625 43.878906 54.640625 43.601562 54.761719 43.324219 L 61.148438 48.441406 L 53.15625 46.433594 C 53.597656 45.699219 54.007812 44.941406 54.382812 44.15625 Z M 55.351562 33.699219 C 55.363281 34.132812 55.355469 34.574219 55.335938 35.015625 L 16.894531 22.636719 C 16.988281 22.308594 17.066406 21.988281 17.128906 21.671875 L 54.605469 29.226562 C 55.070312 30.679688 55.316406 32.171875 55.351562 33.699219 Z M 16.457031 23.976562 L 55.214844 36.457031 C 54.898438 38.933594 54.195312 41.300781 53.109375 43.550781 C 53.09375 43.582031 53.078125 43.617188 53.0625 43.648438 L 15.945312 25.21875 C 16.132812 24.808594 16.304688 24.390625 16.457031 23.976562 Z M 15.316406 26.480469 L 52.414062 44.898438 C 51.191406 47.109375 49.664062 49.082031 47.828125 50.820312 L 14.632812 27.640625 C 14.871094 27.265625 15.097656 26.878906 15.316406 26.480469 Z M 50.351562 50.257812 C 51.074219 49.441406 51.742188 48.585938 52.351562 47.6875 L 62.992188 50.359375 C 62.71875 50.851562 62.453125 51.3125 62.191406 51.742188 Z M 55.308594 41.957031 C 55.679688 40.960938 55.980469 39.945312 56.21875 38.910156 L 64.441406 47.328125 C 64.253906 47.796875 64.042969 48.277344 63.8125 48.769531 Z M 44.277344 22.371094 C 46.835938 22.628906 49.949219 23.503906 52.355469 24.96875 C 53.011719 25.804688 53.558594 26.703125 54 27.664062 L 17.308594 20.269531 C 17.332031 19.84375 17.300781 19.421875 17.21875 19.003906 L 44.257812 22.367188 Z M 9.664062 28.15625 C 9.824219 26.839844 10.347656 25.230469 11.148438 23.625 C 12.761719 20.382812 14.695312 18.753906 15.421875 18.753906 C 15.476562 18.75 15.527344 18.761719 15.574219 18.785156 C 15.742188 18.867188 16.019531 19.375 15.859375 20.695312 C 15.703125 22.011719 15.175781 23.621094 14.378906 25.226562 C 12.632812 28.726562 10.519531 30.351562 9.953125 30.070312 C 9.785156 29.984375 9.507812 29.480469 9.664062 28.15625 Z M 30.089844 50.582031 C 30.085938 50.574219 30.078125 50.570312 30.070312 50.5625 L 11.125 31.246094 C 11.507812 31.058594 11.859375 30.828125 12.183594 30.550781 L 40.089844 55.175781 C 39.058594 55.429688 38.007812 55.5625 36.941406 55.570312 C 34.34375 54.484375 31.816406 52.507812 30.089844 50.585938 Z M 58.050781 56.683594 C 56.578125 56.683594 46.148438 56.683594 40.847656 56.4375 C 41.824219 56.167969 42.765625 55.816406 43.679688 55.378906 L 59.121094 55.808594 C 58.796875 56.144531 58.441406 56.433594 58.050781 56.683594 Z M 58.050781 56.683594 "/></g></g></svg>